# xmcd
#
# Track frame offsets: 
#        150
#        16035
#        27900
#        41202
#        59115
#        74315
#        88865
#        102450
#        118157
#        132485
#        147512
#        162225
#        176535
#
# Disc length: 2608 seconds
#
# Revision: 2
# Processed by: cddbd v1.5PL3 Copyright (c) Steve Scherf et al.
# Submitted via: ExactAudioCopy v0.95a3
#
DISCID=c20a2e0d
DTITLE=Monty Holmes - All I Ever Wanted
DYEAR=1998
DGENRE=Country
TTITLE0=Why'd You Start Lookin' So Good
TTITLE1=Leave My Mama Out Of This
TTITLE2=Man's Best Friend
TTITLE3=Alone
TTITLE4=What I Do The Best
TTITLE5=Love You Right Out Of This
TTITLE6=Enough To Lie
TTITLE7=Jolie
TTITLE8=All I Ever Wanted
TTITLE9=Basic Goodbye
TTITLE10=You're Not All Here Tonight
TTITLE11=Lost In The Shuffle
TTITLE12=While You Were Gone
EXTD=
EXTT0=
EXTT1=
EXTT2=
EXTT3=
EXTT4=
EXTT5=
EXTT6=
EXTT7=
EXTT8=
EXTT9=
EXTT10=
EXTT11=
EXTT12=
PLAYORDER=
